{
	"asset":{
		"generator":"Khronos glTF Blender I/O v4.4.56",
		"version":"2.0"
	},
	"extensionsUsed":[
		"KHR_materials_emissive_strength"
	],
	"scene":0,
	"scenes":[
		{
			"name":"Scene",
			"nodes":[
				0
			]
		}
	],
	"nodes":[
		{
			"mesh":0,
			"name":"Golden Cup.001"
		}
	],
	"materials":[
		{
			"doubleSided":true,
			"name":"Gold",
			"pbrMetallicRoughness":{
				"baseColorFactor":[
					1,
					0.6795432567596436,
					0,
					1
				],
				"metallicFactor":0,
				"roughnessFactor":0.5
			}
		},
		{
			"doubleSided":true,
			"name":"Diamond",
			"pbrMetallicRoughness":{
				"baseColorFactor":[
					0.7453993558883667,
					0.7454048991203308,
					0.7454046010971069,
					1
				],
				"metallicFactor":0,
				"roughnessFactor":0.10000000149011612
			}
		},
		{
			"doubleSided":true,
			"name":"Stone Light.002",
			"pbrMetallicRoughness":{
				"baseColorFactor":[
					0.043734751641750336,
					0.0437350757420063,
					0.04373505711555481,
					1
				],
				"metallicFactor":0,
				"roughnessFactor":0.800000011920929
			}
		},
		{
			"doubleSided":true,
			"name":"Stone Basalt.002",
			"pbrMetallicRoughness":{
				"baseColorFactor":[
					0.1980680376291275,
					0.1980694979429245,
					0.19806940853595734,
					1
				],
				"metallicFactor":0,
				"roughnessFactor":0.800000011920929
			}
		},
		{
			"doubleSided":true,
			"name":"Stone Basalt",
			"pbrMetallicRoughness":{
				"baseColorFactor":[
					0.1980680376291275,
					0.1980694979429245,
					0.19806940853595734,
					1
				],
				"metallicFactor":0,
				"roughnessFactor":0.800000011920929
			}
		},
		{
			"doubleSided":true,
			"name":"Stone",
			"pbrMetallicRoughness":{
				"baseColorFactor":[
					0.012982945889234543,
					0.012983041815459728,
					0.01298303622752428,
					1
				],
				"metallicFactor":0,
				"roughnessFactor":0.800000011920929
			}
		},
		{
			"doubleSided":true,
			"name":"Stone Light",
			"pbrMetallicRoughness":{
				"baseColorFactor":[
					0.043734751641750336,
					0.0437350757420063,
					0.04373505711555481,
					1
				],
				"metallicFactor":0,
				"roughnessFactor":0.800000011920929
			}
		},
		{
			"doubleSided":true,
			"name":"Stone Light.001",
			"pbrMetallicRoughness":{
				"baseColorFactor":[
					0.043734751641750336,
					0.0437350757420063,
					0.04373505711555481,
					1
				],
				"metallicFactor":0,
				"roughnessFactor":0.800000011920929
			}
		},
		{
			"doubleSided":true,
			"name":"Stone Basalt.001",
			"pbrMetallicRoughness":{
				"baseColorFactor":[
					0.1980680376291275,
					0.1980694979429245,
					0.19806940853595734,
					1
				],
				"metallicFactor":0,
				"roughnessFactor":0.800000011920929
			}
		},
		{
			"doubleSided":true,
			"name":"Wood",
			"pbrMetallicRoughness":{
				"baseColorFactor":[
					0.14702646434307098,
					0.07618547976016998,
					0.039546262472867966,
					1
				],
				"metallicFactor":0,
				"roughnessFactor":0.8500000238418579
			}
		},
		{
			"doubleSided":true,
			"name":"Steel",
			"pbrMetallicRoughness":{
				"baseColorFactor":[
					0.10224103927612305,
					0.10224179923534393,
					0.10224175453186035,
					1
				],
				"metallicFactor":0.800000011920929,
				"roughnessFactor":0.5
			}
		},
		{
			"doubleSided":true,
			"name":"Blood",
			"pbrMetallicRoughness":{
				"baseColorFactor":[
					0.2581816017627716,
					0.045186251401901245,
					0.01161226350814104,
					1
				],
				"metallicFactor":0,
				"roughnessFactor":0.800000011920929
			}
		},
		{
			"doubleSided":true,
			"emissiveFactor":[
				1,
				0.6998633742332458,
				0.012331914156675339
			],
			"extensions":{
				"KHR_materials_emissive_strength":{
					"emissiveStrength":40
				}
			},
			"name":"Flames",
			"pbrMetallicRoughness":{
				"baseColorFactor":[
					0.800000011920929,
					0.800000011920929,
					0.800000011920929,
					1
				],
				"metallicFactor":0,
				"roughnessFactor":0.5
			}
		}
	],
	"meshes":[
		{
			"name":"Cylinder.012",
			"primitives":[
				{
					"attributes":{
						"POSITION":0,
						"NORMAL":1,
						"TEXCOORD_0":2
					},
					"indices":3,
					"material":0
				},
				{
					"attributes":{
						"POSITION":4,
						"NORMAL":5,
						"TEXCOORD_0":6
					},
					"indices":7,
					"material":1
				},
				{
					"attributes":{
						"POSITION":8,
						"NORMAL":9,
						"TEXCOORD_0":10
					},
					"indices":11,
					"material":2
				},
				{
					"attributes":{
						"POSITION":12,
						"NORMAL":13,
						"TEXCOORD_0":14
					},
					"indices":15,
					"material":3
				},
				{
					"attributes":{
						"POSITION":16,
						"NORMAL":17,
						"TEXCOORD_0":18
					},
					"indices":19,
					"material":4
				},
				{
					"attributes":{
						"POSITION":20,
						"NORMAL":21,
						"TEXCOORD_0":22
					},
					"indices":23,
					"material":5
				},
				{
					"attributes":{
						"POSITION":24,
						"NORMAL":25,
						"TEXCOORD_0":26
					},
					"indices":27,
					"material":6
				},
				{
					"attributes":{
						"POSITION":28,
						"NORMAL":29,
						"TEXCOORD_0":30
					},
					"indices":31,
					"material":7
				},
				{
					"attributes":{
						"POSITION":32,
						"NORMAL":33,
						"TEXCOORD_0":34
					},
					"indices":35,
					"material":8
				},
				{
					"attributes":{
						"POSITION":36,
						"NORMAL":37,
						"TEXCOORD_0":38
					},
					"indices":39,
					"material":9
				},
				{
					"attributes":{
						"POSITION":40,
						"NORMAL":41,
						"TEXCOORD_0":42
					},
					"indices":43,
					"material":10
				},
				{
					"attributes":{
						"POSITION":44,
						"NORMAL":45,
						"TEXCOORD_0":46
					},
					"indices":47,
					"material":11
				},
				{
					"attributes":{
						"POSITION":48,
						"NORMAL":49,
						"TEXCOORD_0":50
					},
					"indices":51,
					"material":12
				}
			]
		}
	],
	"accessors":[
		{
			"bufferView":0,
			"componentType":5126,
			"count":948,
			"max":[
				0.22498534619808197,
				0.19501638412475586,
				0.22498534619808197
			],
			"min":[
				-0.22498534619808197,
				-0.32633718848228455,
				-0.22498533129692078
			],
			"type":"VEC3"
		},
		{
			"bufferView":1,
			"componentType":5126,
			"count":948,
			"type":"VEC3"
		},
		{
			"bufferView":2,
			"componentType":5126,
			"count":948,
			"type":"VEC2"
		},
		{
			"bufferView":3,
			"componentType":5123,
			"count":1962,
			"type":"SCALAR"
		},
		{
			"bufferView":4,
			"componentType":5126,
			"count":558,
			"max":[
				0.22762776911258698,
				0.1333034634590149,
				0.22762776911258698
			],
			"min":[
				-0.22762776911258698,
				-0.32633718848228455,
				-0.2276277244091034
			],
			"type":"VEC3"
		},
		{
			"bufferView":5,
			"componentType":5126,
			"count":558,
			"type":"VEC3"
		},
		{
			"bufferView":6,
			"componentType":5126,
			"count":558,
			"type":"VEC2"
		},
		{
			"bufferView":7,
			"componentType":5123,
			"count":1098,
			"type":"SCALAR"
		},
		{
			"bufferView":8,
			"componentType":5126,
			"count":3624,
			"max":[
				13.79849624633789,
				0.831317663192749,
				12.440982818603516
			],
			"min":[
				-13.891549110412598,
				-0.36259686946868896,
				-12.331315040588379
			],
			"type":"VEC3"
		},
		{
			"bufferView":9,
			"componentType":5126,
			"count":3624,
			"type":"VEC3"
		},
		{
			"bufferView":10,
			"componentType":5126,
			"count":3624,
			"type":"VEC2"
		},
		{
			"bufferView":11,
			"componentType":5123,
			"count":6264,
			"type":"SCALAR"
		},
		{
			"bufferView":12,
			"componentType":5126,
			"count":1320,
			"max":[
				13.747008323669434,
				0.5609179735183716,
				12.389495849609375
			],
			"min":[
				-13.840062141418457,
				-0.12603406608104706,
				-12.279828071594238
			],
			"type":"VEC3"
		},
		{
			"bufferView":13,
			"componentType":5126,
			"count":1320,
			"type":"VEC3"
		},
		{
			"bufferView":14,
			"componentType":5126,
			"count":1320,
			"type":"VEC2"
		},
		{
			"bufferView":15,
			"componentType":5123,
			"count":2088,
			"type":"SCALAR"
		},
		{
			"bufferView":16,
			"componentType":5126,
			"count":78567,
			"max":[
				13.734526634216309,
				0.7704442143440247,
				12.37701416015625
			],
			"min":[
				-13.827579498291016,
				-0.3640897274017334,
				-12.26734733581543
			],
			"type":"VEC3"
		},
		{
			"bufferView":17,
			"componentType":5126,
			"count":78567,
			"type":"VEC3"
		},
		{
			"bufferView":18,
			"componentType":5126,
			"count":78567,
			"type":"VEC2"
		},
		{
			"bufferView":19,
			"componentType":5125,
			"count":138684,
			"type":"SCALAR"
		},
		{
			"bufferView":20,
			"componentType":5126,
			"count":19224,
			"max":[
				13.693100929260254,
				0.7972420454025269,
				12.335587501525879
			],
			"min":[
				-13.786152839660645,
				-0.36890867352485657,
				-12.253031730651855
			],
			"type":"VEC3"
		},
		{
			"bufferView":21,
			"componentType":5126,
			"count":19224,
			"type":"VEC3"
		},
		{
			"bufferView":22,
			"componentType":5126,
			"count":19224,
			"type":"VEC2"
		},
		{
			"bufferView":23,
			"componentType":5123,
			"count":40440,
			"type":"SCALAR"
		},
		{
			"bufferView":24,
			"componentType":5126,
			"count":5556,
			"max":[
				13.673774719238281,
				0.8042354583740234,
				12.316262245178223
			],
			"min":[
				-13.766828536987305,
				-0.35659122467041016,
				-12.2337064743042
			],
			"type":"VEC3"
		},
		{
			"bufferView":25,
			"componentType":5126,
			"count":5556,
			"type":"VEC3"
		},
		{
			"bufferView":26,
			"componentType":5126,
			"count":5556,
			"type":"VEC2"
		},
		{
			"bufferView":27,
			"componentType":5123,
			"count":8868,
			"type":"SCALAR"
		},
		{
			"bufferView":28,
			"componentType":5126,
			"count":31408,
			"max":[
				13.779998779296875,
				0.8190391063690186,
				12.4224853515625
			],
			"min":[
				-13.87304973602295,
				-0.36327022314071655,
				-12.358427047729492
			],
			"type":"VEC3"
		},
		{
			"bufferView":29,
			"componentType":5126,
			"count":31408,
			"type":"VEC3"
		},
		{
			"bufferView":30,
			"componentType":5126,
			"count":31408,
			"type":"VEC2"
		},
		{
			"bufferView":31,
			"componentType":5123,
			"count":54288,
			"type":"SCALAR"
		},
		{
			"bufferView":32,
			"componentType":5126,
			"count":11440,
			"max":[
				13.728510856628418,
				0.5602445602416992,
				12.370997428894043
			],
			"min":[
				-13.821562767028809,
				-0.12670743465423584,
				-12.306939125061035
			],
			"type":"VEC3"
		},
		{
			"bufferView":33,
			"componentType":5126,
			"count":11440,
			"type":"VEC3"
		},
		{
			"bufferView":34,
			"componentType":5126,
			"count":11440,
			"type":"VEC2"
		},
		{
			"bufferView":35,
			"componentType":5123,
			"count":18096,
			"type":"SCALAR"
		},
		{
			"bufferView":36,
			"componentType":5126,
			"count":9586,
			"max":[
				13.63979721069336,
				0.24945278465747833,
				12.286285400390625
			],
			"min":[
				-13.710833549499512,
				-0.36280208826065063,
				-12.19228744506836
			],
			"type":"VEC3"
		},
		{
			"bufferView":37,
			"componentType":5126,
			"count":9586,
			"type":"VEC3"
		},
		{
			"bufferView":38,
			"componentType":5126,
			"count":9586,
			"type":"VEC2"
		},
		{
			"bufferView":39,
			"componentType":5123,
			"count":18948,
			"type":"SCALAR"
		},
		{
			"bufferView":40,
			"componentType":5126,
			"count":2602,
			"max":[
				13.643096923828125,
				0.27048999071121216,
				12.289587020874023
			],
			"min":[
				-13.71413516998291,
				-0.3177074193954468,
				-12.195589065551758
			],
			"type":"VEC3"
		},
		{
			"bufferView":41,
			"componentType":5126,
			"count":2602,
			"type":"VEC3"
		},
		{
			"bufferView":42,
			"componentType":5126,
			"count":2602,
			"type":"VEC2"
		},
		{
			"bufferView":43,
			"componentType":5123,
			"count":4152,
			"type":"SCALAR"
		},
		{
			"bufferView":44,
			"componentType":5126,
			"count":83,
			"max":[
				0.8647355437278748,
				-0.325373113155365,
				1.0472817420959473
			],
			"min":[
				-0.9177165031433105,
				-0.325373113155365,
				-0.9906023144721985
			],
			"type":"VEC3"
		},
		{
			"bufferView":45,
			"componentType":5126,
			"count":83,
			"type":"VEC3"
		},
		{
			"bufferView":46,
			"componentType":5126,
			"count":83,
			"type":"VEC2"
		},
		{
			"bufferView":47,
			"componentType":5123,
			"count":228,
			"type":"SCALAR"
		},
		{
			"bufferView":48,
			"componentType":5126,
			"count":480,
			"max":[
				2.1288697719573975,
				0.32083842158317566,
				1.6359481811523438
			],
			"min":[
				-2.37716007232666,
				0.2559296488761902,
				-1.779640793800354
			],
			"type":"VEC3"
		},
		{
			"bufferView":49,
			"componentType":5126,
			"count":480,
			"type":"VEC3"
		},
		{
			"bufferView":50,
			"componentType":5126,
			"count":480,
			"type":"VEC2"
		},
		{
			"bufferView":51,
			"componentType":5123,
			"count":672,
			"type":"SCALAR"
		}
	],
	"bufferViews":[
		{
			"buffer":0,
			"byteLength":11376,
			"byteOffset":0,
			"target":34962
		},
		{
			"buffer":0,
			"byteLength":11376,
			"byteOffset":11376,
			"target":34962
		},
		{
			"buffer":0,
			"byteLength":7584,
			"byteOffset":22752,
			"target":34962
		},
		{
			"buffer":0,
			"byteLength":3924,
			"byteOffset":30336,
			"target":34963
		},
		{
			"buffer":0,
			"byteLength":6696,
			"byteOffset":34260,
			"target":34962
		},
		{
			"buffer":0,
			"byteLength":6696,
			"byteOffset":40956,
			"target":34962
		},
		{
			"buffer":0,
			"byteLength":4464,
			"byteOffset":47652,
			"target":34962
		},
		{
			"buffer":0,
			"byteLength":2196,
			"byteOffset":52116,
			"target":34963
		},
		{
			"buffer":0,
			"byteLength":43488,
			"byteOffset":54312,
			"target":34962
		},
		{
			"buffer":0,
			"byteLength":43488,
			"byteOffset":97800,
			"target":34962
		},
		{
			"buffer":0,
			"byteLength":28992,
			"byteOffset":141288,
			"target":34962
		},
		{
			"buffer":0,
			"byteLength":12528,
			"byteOffset":170280,
			"target":34963
		},
		{
			"buffer":0,
			"byteLength":15840,
			"byteOffset":182808,
			"target":34962
		},
		{
			"buffer":0,
			"byteLength":15840,
			"byteOffset":198648,
			"target":34962
		},
		{
			"buffer":0,
			"byteLength":10560,
			"byteOffset":214488,
			"target":34962
		},
		{
			"buffer":0,
			"byteLength":4176,
			"byteOffset":225048,
			"target":34963
		},
		{
			"buffer":0,
			"byteLength":942804,
			"byteOffset":229224,
			"target":34962
		},
		{
			"buffer":0,
			"byteLength":942804,
			"byteOffset":1172028,
			"target":34962
		},
		{
			"buffer":0,
			"byteLength":628536,
			"byteOffset":2114832,
			"target":34962
		},
		{
			"buffer":0,
			"byteLength":554736,
			"byteOffset":2743368,
			"target":34963
		},
		{
			"buffer":0,
			"byteLength":230688,
			"byteOffset":3298104,
			"target":34962
		},
		{
			"buffer":0,
			"byteLength":230688,
			"byteOffset":3528792,
			"target":34962
		},
		{
			"buffer":0,
			"byteLength":153792,
			"byteOffset":3759480,
			"target":34962
		},
		{
			"buffer":0,
			"byteLength":80880,
			"byteOffset":3913272,
			"target":34963
		},
		{
			"buffer":0,
			"byteLength":66672,
			"byteOffset":3994152,
			"target":34962
		},
		{
			"buffer":0,
			"byteLength":66672,
			"byteOffset":4060824,
			"target":34962
		},
		{
			"buffer":0,
			"byteLength":44448,
			"byteOffset":4127496,
			"target":34962
		},
		{
			"buffer":0,
			"byteLength":17736,
			"byteOffset":4171944,
			"target":34963
		},
		{
			"buffer":0,
			"byteLength":376896,
			"byteOffset":4189680,
			"target":34962
		},
		{
			"buffer":0,
			"byteLength":376896,
			"byteOffset":4566576,
			"target":34962
		},
		{
			"buffer":0,
			"byteLength":251264,
			"byteOffset":4943472,
			"target":34962
		},
		{
			"buffer":0,
			"byteLength":108576,
			"byteOffset":5194736,
			"target":34963
		},
		{
			"buffer":0,
			"byteLength":137280,
			"byteOffset":5303312,
			"target":34962
		},
		{
			"buffer":0,
			"byteLength":137280,
			"byteOffset":5440592,
			"target":34962
		},
		{
			"buffer":0,
			"byteLength":91520,
			"byteOffset":5577872,
			"target":34962
		},
		{
			"buffer":0,
			"byteLength":36192,
			"byteOffset":5669392,
			"target":34963
		},
		{
			"buffer":0,
			"byteLength":115032,
			"byteOffset":5705584,
			"target":34962
		},
		{
			"buffer":0,
			"byteLength":115032,
			"byteOffset":5820616,
			"target":34962
		},
		{
			"buffer":0,
			"byteLength":76688,
			"byteOffset":5935648,
			"target":34962
		},
		{
			"buffer":0,
			"byteLength":37896,
			"byteOffset":6012336,
			"target":34963
		},
		{
			"buffer":0,
			"byteLength":31224,
			"byteOffset":6050232,
			"target":34962
		},
		{
			"buffer":0,
			"byteLength":31224,
			"byteOffset":6081456,
			"target":34962
		},
		{
			"buffer":0,
			"byteLength":20816,
			"byteOffset":6112680,
			"target":34962
		},
		{
			"buffer":0,
			"byteLength":8304,
			"byteOffset":6133496,
			"target":34963
		},
		{
			"buffer":0,
			"byteLength":996,
			"byteOffset":6141800,
			"target":34962
		},
		{
			"buffer":0,
			"byteLength":996,
			"byteOffset":6142796,
			"target":34962
		},
		{
			"buffer":0,
			"byteLength":664,
			"byteOffset":6143792,
			"target":34962
		},
		{
			"buffer":0,
			"byteLength":456,
			"byteOffset":6144456,
			"target":34963
		},
		{
			"buffer":0,
			"byteLength":5760,
			"byteOffset":6144912,
			"target":34962
		},
		{
			"buffer":0,
			"byteLength":5760,
			"byteOffset":6150672,
			"target":34962
		},
		{
			"buffer":0,
			"byteLength":3840,
			"byteOffset":6156432,
			"target":34962
		},
		{
			"buffer":0,
			"byteLength":1344,
			"byteOffset":6160272,
			"target":34963
		}
	],
	"buffers":[
		{
			"byteLength":6161616,
			"uri":"Dungen.bin"
		}
	]
}
